<mxfile host="app.diagrams.net" agent="Mozilla/5.0 (Windows NT 10.0; Win64; x64) AppleWebKit/537.36 (KHTML, like Gecko) Chrome/132.0.0.0 Safari/537.36 Edg/132.0.0.0" version="26.0.9">
  <diagram name="Pagina-1" id="f_py4ygwqpFPq02CmGYS">
    <mxGraphModel dx="1489" dy="807" grid="1" gridSize="10" guides="1" tooltips="1" connect="1" arrows="1" fold="1" page="1" pageScale="1" pageWidth="827" pageHeight="1169" math="0" shadow="0">
      <root>
        <mxCell id="0" />
        <mxCell id="1" parent="0" />
        <mxCell id="Rk2qhPAnE23z12M6foZ3-5" style="edgeStyle=orthogonalEdgeStyle;rounded=0;orthogonalLoop=1;jettySize=auto;html=1;entryX=0.5;entryY=0;entryDx=0;entryDy=0;" edge="1" parent="1" source="Rk2qhPAnE23z12M6foZ3-1" target="Rk2qhPAnE23z12M6foZ3-2">
          <mxGeometry relative="1" as="geometry" />
        </mxCell>
        <mxCell id="Rk2qhPAnE23z12M6foZ3-1" value="START" style="ellipse;whiteSpace=wrap;html=1;" vertex="1" parent="1">
          <mxGeometry x="360" y="20" width="120" height="80" as="geometry" />
        </mxCell>
        <mxCell id="Rk2qhPAnE23z12M6foZ3-4" style="edgeStyle=orthogonalEdgeStyle;rounded=0;orthogonalLoop=1;jettySize=auto;html=1;entryX=0.5;entryY=0;entryDx=0;entryDy=0;" edge="1" parent="1" source="Rk2qhPAnE23z12M6foZ3-2" target="Rk2qhPAnE23z12M6foZ3-3">
          <mxGeometry relative="1" as="geometry" />
        </mxCell>
        <mxCell id="Rk2qhPAnE23z12M6foZ3-2" value="Read n" style="shape=parallelogram;perimeter=parallelogramPerimeter;whiteSpace=wrap;html=1;fixedSize=1;" vertex="1" parent="1">
          <mxGeometry x="360" y="140" width="120" height="60" as="geometry" />
        </mxCell>
        <mxCell id="Rk2qhPAnE23z12M6foZ3-7" style="edgeStyle=orthogonalEdgeStyle;rounded=0;orthogonalLoop=1;jettySize=auto;html=1;entryX=0.5;entryY=0;entryDx=0;entryDy=0;" edge="1" parent="1" source="Rk2qhPAnE23z12M6foZ3-3" target="Rk2qhPAnE23z12M6foZ3-9">
          <mxGeometry relative="1" as="geometry">
            <mxPoint x="420" y="360" as="targetPoint" />
          </mxGeometry>
        </mxCell>
        <mxCell id="Rk2qhPAnE23z12M6foZ3-13" value="FALSE" style="edgeLabel;html=1;align=center;verticalAlign=middle;resizable=0;points=[];" vertex="1" connectable="0" parent="Rk2qhPAnE23z12M6foZ3-7">
          <mxGeometry x="-0.1606" relative="1" as="geometry">
            <mxPoint as="offset" />
          </mxGeometry>
        </mxCell>
        <mxCell id="Rk2qhPAnE23z12M6foZ3-3" value="n &amp;gt;= 1 AND&lt;div&gt;n &amp;lt;= 100&lt;/div&gt;" style="rhombus;whiteSpace=wrap;html=1;" vertex="1" parent="1">
          <mxGeometry x="360" y="240" width="120" height="80" as="geometry" />
        </mxCell>
        <mxCell id="Rk2qhPAnE23z12M6foZ3-22" style="edgeStyle=orthogonalEdgeStyle;rounded=0;orthogonalLoop=1;jettySize=auto;html=1;entryX=0.5;entryY=0;entryDx=0;entryDy=0;" edge="1" parent="1" source="Rk2qhPAnE23z12M6foZ3-8" target="Rk2qhPAnE23z12M6foZ3-20">
          <mxGeometry relative="1" as="geometry" />
        </mxCell>
        <mxCell id="Rk2qhPAnE23z12M6foZ3-8" value="Write (n/2)*(n/2+1)" style="shape=parallelogram;perimeter=parallelogramPerimeter;whiteSpace=wrap;html=1;fixedSize=1;" vertex="1" parent="1">
          <mxGeometry x="772.5" y="250" width="120" height="60" as="geometry" />
        </mxCell>
        <mxCell id="Rk2qhPAnE23z12M6foZ3-17" style="edgeStyle=orthogonalEdgeStyle;rounded=0;orthogonalLoop=1;jettySize=auto;html=1;" edge="1" parent="1" source="Rk2qhPAnE23z12M6foZ3-9">
          <mxGeometry relative="1" as="geometry">
            <mxPoint x="420" y="560" as="targetPoint" />
          </mxGeometry>
        </mxCell>
        <mxCell id="Rk2qhPAnE23z12M6foZ3-18" value="TRUE" style="edgeLabel;html=1;align=center;verticalAlign=middle;resizable=0;points=[];" vertex="1" connectable="0" parent="Rk2qhPAnE23z12M6foZ3-17">
          <mxGeometry x="-0.2385" y="-1" relative="1" as="geometry">
            <mxPoint as="offset" />
          </mxGeometry>
        </mxCell>
        <mxCell id="Rk2qhPAnE23z12M6foZ3-49" style="edgeStyle=orthogonalEdgeStyle;rounded=0;orthogonalLoop=1;jettySize=auto;html=1;entryX=0;entryY=0.5;entryDx=0;entryDy=0;" edge="1" parent="1" source="Rk2qhPAnE23z12M6foZ3-9" target="Rk2qhPAnE23z12M6foZ3-48">
          <mxGeometry relative="1" as="geometry" />
        </mxCell>
        <mxCell id="Rk2qhPAnE23z12M6foZ3-50" value="FALSE" style="edgeLabel;html=1;align=center;verticalAlign=middle;resizable=0;points=[];" vertex="1" connectable="0" parent="Rk2qhPAnE23z12M6foZ3-49">
          <mxGeometry x="-0.2524" relative="1" as="geometry">
            <mxPoint x="4" as="offset" />
          </mxGeometry>
        </mxCell>
        <mxCell id="Rk2qhPAnE23z12M6foZ3-9" value="n &amp;lt;= 0" style="rhombus;whiteSpace=wrap;html=1;" vertex="1" parent="1">
          <mxGeometry x="360" y="440" width="120" height="80" as="geometry" />
        </mxCell>
        <mxCell id="Rk2qhPAnE23z12M6foZ3-21" style="edgeStyle=orthogonalEdgeStyle;rounded=0;orthogonalLoop=1;jettySize=auto;html=1;entryX=0;entryY=0.5;entryDx=0;entryDy=0;" edge="1" parent="1" source="Rk2qhPAnE23z12M6foZ3-15" target="Rk2qhPAnE23z12M6foZ3-20">
          <mxGeometry relative="1" as="geometry" />
        </mxCell>
        <mxCell id="Rk2qhPAnE23z12M6foZ3-15" value="Write (n/2)*(n/2)" style="shape=parallelogram;perimeter=parallelogramPerimeter;whiteSpace=wrap;html=1;fixedSize=1;" vertex="1" parent="1">
          <mxGeometry x="770" y="450" width="120" height="60" as="geometry" />
        </mxCell>
        <mxCell id="Rk2qhPAnE23z12M6foZ3-26" style="edgeStyle=orthogonalEdgeStyle;rounded=0;orthogonalLoop=1;jettySize=auto;html=1;entryX=0;entryY=0.5;entryDx=0;entryDy=0;" edge="1" parent="1" source="Rk2qhPAnE23z12M6foZ3-19" target="Rk2qhPAnE23z12M6foZ3-23">
          <mxGeometry relative="1" as="geometry" />
        </mxCell>
        <mxCell id="Rk2qhPAnE23z12M6foZ3-19" value="Write &quot;NOOOO&quot;" style="shape=parallelogram;perimeter=parallelogramPerimeter;whiteSpace=wrap;html=1;fixedSize=1;" vertex="1" parent="1">
          <mxGeometry x="360" y="560" width="120" height="60" as="geometry" />
        </mxCell>
        <mxCell id="Rk2qhPAnE23z12M6foZ3-25" style="edgeStyle=orthogonalEdgeStyle;rounded=0;orthogonalLoop=1;jettySize=auto;html=1;entryX=0.5;entryY=0;entryDx=0;entryDy=0;" edge="1" parent="1" source="Rk2qhPAnE23z12M6foZ3-20" target="Rk2qhPAnE23z12M6foZ3-23">
          <mxGeometry relative="1" as="geometry" />
        </mxCell>
        <mxCell id="Rk2qhPAnE23z12M6foZ3-20" value="" style="ellipse;whiteSpace=wrap;html=1;aspect=fixed;" vertex="1" parent="1">
          <mxGeometry x="910" y="470" width="20" height="20" as="geometry" />
        </mxCell>
        <mxCell id="Rk2qhPAnE23z12M6foZ3-28" style="edgeStyle=orthogonalEdgeStyle;rounded=0;orthogonalLoop=1;jettySize=auto;html=1;" edge="1" parent="1" source="Rk2qhPAnE23z12M6foZ3-23">
          <mxGeometry relative="1" as="geometry">
            <mxPoint x="920" y="640" as="targetPoint" />
          </mxGeometry>
        </mxCell>
        <mxCell id="Rk2qhPAnE23z12M6foZ3-23" value="" style="ellipse;whiteSpace=wrap;html=1;aspect=fixed;" vertex="1" parent="1">
          <mxGeometry x="910" y="580" width="20" height="20" as="geometry" />
        </mxCell>
        <mxCell id="Rk2qhPAnE23z12M6foZ3-27" value="END" style="ellipse;whiteSpace=wrap;html=1;" vertex="1" parent="1">
          <mxGeometry x="860" y="640" width="120" height="80" as="geometry" />
        </mxCell>
        <mxCell id="Rk2qhPAnE23z12M6foZ3-42" style="edgeStyle=orthogonalEdgeStyle;rounded=0;orthogonalLoop=1;jettySize=auto;html=1;entryX=0;entryY=0.5;entryDx=0;entryDy=0;" edge="1" parent="1" source="Rk2qhPAnE23z12M6foZ3-39" target="Rk2qhPAnE23z12M6foZ3-8">
          <mxGeometry relative="1" as="geometry" />
        </mxCell>
        <mxCell id="Rk2qhPAnE23z12M6foZ3-43" value="TRUE" style="edgeLabel;html=1;align=center;verticalAlign=middle;resizable=0;points=[];" vertex="1" connectable="0" parent="Rk2qhPAnE23z12M6foZ3-42">
          <mxGeometry x="-0.1407" relative="1" as="geometry">
            <mxPoint as="offset" />
          </mxGeometry>
        </mxCell>
        <mxCell id="Rk2qhPAnE23z12M6foZ3-45" style="edgeStyle=orthogonalEdgeStyle;rounded=0;orthogonalLoop=1;jettySize=auto;html=1;entryX=0.5;entryY=1;entryDx=0;entryDy=0;" edge="1" parent="1" source="Rk2qhPAnE23z12M6foZ3-39" target="Rk2qhPAnE23z12M6foZ3-44">
          <mxGeometry relative="1" as="geometry" />
        </mxCell>
        <mxCell id="Rk2qhPAnE23z12M6foZ3-46" value="FALSE" style="edgeLabel;html=1;align=center;verticalAlign=middle;resizable=0;points=[];" vertex="1" connectable="0" parent="Rk2qhPAnE23z12M6foZ3-45">
          <mxGeometry x="-0.2083" y="-1" relative="1" as="geometry">
            <mxPoint as="offset" />
          </mxGeometry>
        </mxCell>
        <mxCell id="Rk2qhPAnE23z12M6foZ3-39" value="n % 2 == 0" style="rhombus;whiteSpace=wrap;html=1;" vertex="1" parent="1">
          <mxGeometry x="550" y="240" width="120" height="80" as="geometry" />
        </mxCell>
        <mxCell id="Rk2qhPAnE23z12M6foZ3-40" style="edgeStyle=orthogonalEdgeStyle;rounded=0;orthogonalLoop=1;jettySize=auto;html=1;entryX=0.061;entryY=0.51;entryDx=0;entryDy=0;entryPerimeter=0;" edge="1" parent="1" source="Rk2qhPAnE23z12M6foZ3-3" target="Rk2qhPAnE23z12M6foZ3-39">
          <mxGeometry relative="1" as="geometry" />
        </mxCell>
        <mxCell id="Rk2qhPAnE23z12M6foZ3-41" value="TRUE" style="edgeLabel;html=1;align=center;verticalAlign=middle;resizable=0;points=[];" vertex="1" connectable="0" parent="Rk2qhPAnE23z12M6foZ3-40">
          <mxGeometry x="-0.2536" relative="1" as="geometry">
            <mxPoint as="offset" />
          </mxGeometry>
        </mxCell>
        <mxCell id="Rk2qhPAnE23z12M6foZ3-44" value="n -= 1" style="rounded=0;whiteSpace=wrap;html=1;" vertex="1" parent="1">
          <mxGeometry x="550" y="140" width="120" height="60" as="geometry" />
        </mxCell>
        <mxCell id="Rk2qhPAnE23z12M6foZ3-47" style="edgeStyle=orthogonalEdgeStyle;rounded=0;orthogonalLoop=1;jettySize=auto;html=1;entryX=0.557;entryY=-0.019;entryDx=0;entryDy=0;entryPerimeter=0;" edge="1" parent="1" source="Rk2qhPAnE23z12M6foZ3-44" target="Rk2qhPAnE23z12M6foZ3-8">
          <mxGeometry relative="1" as="geometry" />
        </mxCell>
        <mxCell id="Rk2qhPAnE23z12M6foZ3-51" style="edgeStyle=orthogonalEdgeStyle;rounded=0;orthogonalLoop=1;jettySize=auto;html=1;entryX=0;entryY=0.5;entryDx=0;entryDy=0;" edge="1" parent="1" source="Rk2qhPAnE23z12M6foZ3-48" target="Rk2qhPAnE23z12M6foZ3-15">
          <mxGeometry relative="1" as="geometry" />
        </mxCell>
        <mxCell id="Rk2qhPAnE23z12M6foZ3-52" value="TRUE" style="edgeLabel;html=1;align=center;verticalAlign=middle;resizable=0;points=[];" vertex="1" connectable="0" parent="Rk2qhPAnE23z12M6foZ3-51">
          <mxGeometry x="-0.1455" y="-2" relative="1" as="geometry">
            <mxPoint x="3" y="-2" as="offset" />
          </mxGeometry>
        </mxCell>
        <mxCell id="Rk2qhPAnE23z12M6foZ3-54" style="edgeStyle=orthogonalEdgeStyle;rounded=0;orthogonalLoop=1;jettySize=auto;html=1;entryX=0.5;entryY=1;entryDx=0;entryDy=0;" edge="1" parent="1" source="Rk2qhPAnE23z12M6foZ3-48" target="Rk2qhPAnE23z12M6foZ3-53">
          <mxGeometry relative="1" as="geometry" />
        </mxCell>
        <mxCell id="Rk2qhPAnE23z12M6foZ3-55" value="FALSE" style="edgeLabel;html=1;align=center;verticalAlign=middle;resizable=0;points=[];" vertex="1" connectable="0" parent="Rk2qhPAnE23z12M6foZ3-54">
          <mxGeometry x="-0.2083" y="-1" relative="1" as="geometry">
            <mxPoint as="offset" />
          </mxGeometry>
        </mxCell>
        <mxCell id="Rk2qhPAnE23z12M6foZ3-48" value="n % 2 == 0" style="rhombus;whiteSpace=wrap;html=1;" vertex="1" parent="1">
          <mxGeometry x="550" y="440" width="120" height="80" as="geometry" />
        </mxCell>
        <mxCell id="Rk2qhPAnE23z12M6foZ3-53" value="n += 1" style="rounded=0;whiteSpace=wrap;html=1;" vertex="1" parent="1">
          <mxGeometry x="550" y="340" width="120" height="60" as="geometry" />
        </mxCell>
        <mxCell id="Rk2qhPAnE23z12M6foZ3-56" style="edgeStyle=orthogonalEdgeStyle;rounded=0;orthogonalLoop=1;jettySize=auto;html=1;entryX=0.578;entryY=-0.053;entryDx=0;entryDy=0;entryPerimeter=0;" edge="1" parent="1" source="Rk2qhPAnE23z12M6foZ3-53" target="Rk2qhPAnE23z12M6foZ3-15">
          <mxGeometry relative="1" as="geometry" />
        </mxCell>
      </root>
    </mxGraphModel>
  </diagram>
</mxfile>
